PathFileType	4	(X/Y/Z)	SUBJ62_3_walk_RCNL2025.trc
DataRate	CameraRate	NumFrames	NumMarkers	Units	OrigDataRate	OrigDataStartFrame	OrigNumFrames
100	100	6	25	mm	100	159	316
Frame#	Time	R_Shoulder			L_Shoulder			C7			J_Notch			R_Elbow			L_Elbow			R_Wrist			L_Wrist			R_Asis			L_Asis			Sacral			Thoracic			Sternum			R_Thigh_Lateral			R_Knee_Lateral			R_Shank_Lateral			R_Ankle_Lateral			R_Heel			R_Toe			L_Thigh_Lateral			L_Knee_Lateral			L_Shank_Lateral			L_Ankle_Lateral			L_Heel			L_Toe		
		X1	Y1	Z1	X2	Y2	Z2	X3	Y3	Z3	X4	Y4	Z4	X5	Y5	Z5	X6	Y6	Z6	X7	Y7	Z7	X8	Y8	Z8	X9	Y9	Z9	X10	Y10	Z10	X11	Y11	Z11	X12	Y12	Z12	X13	Y13	Z13	X14	Y14	Z14	X15	Y15	Z15	X16	Y16	Z16	X17	Y17	Z17	X18	Y18	Z18	X19	Y19	Z19	X20	Y20	Z20	X21	Y21	Z21	X22	Y22	Z22	X23	Y23	Z23	X24	Y24	Z24	X25	Y25	Z25
159	1.58000000	-267.112518	1273.955444	283.444305	-281.761841	1303.891724	-54.437347	-347.689148	1355.468506	116.966835	-219.669846	1264.305908	108.299171	-347.361847	982.512146	341.178436	-272.946777	1004.044800	-129.147446	-286.396606	769.176270	340.402695	-169.981750	807.868591	-119.032173	-214.744080	875.771729	241.556061	-227.500717	869.834534	-18.139906	-396.840942	873.514221	119.802208	-413.200775	1160.363892	108.998886	-201.541702	1065.202881	103.538956	-227.155060	483.122406	296.779205	-218.284302	427.939545	219.134552	-214.971680	248.726517	248.330917	-234.234940	61.349335	169.172714	-290.280334	45.784344	133.287872	-131.716736	46.097687	144.849503	-267.977386	470.691345	-74.077927	-272.537354	414.794586	-26.630941	-404.872223	289.387390	-59.371510	-537.377625	185.079147	9.417624	-565.990601	228.671906	60.338196	-498.923157	81.881310	10.655976
160	1.59000000	-255.759094	1274.647217	283.656647	-271.678497	1304.439331	-54.191227	-336.808685	1356.445923	117.651825	-208.975693	1264.943359	108.550629	-330.912506	982.261230	342.835144	-267.308075	1004.267456	-128.326752	-265.271004	770.423004	341.359146	-169.253891	805.590942	-119.346062	-205.191147	876.025696	242.723053	-217.172501	871.005859	-17.224522	-386.798615	874.423279	120.488388	-402.788177	1161.439453	110.028755	-191.406967	1065.868652	103.920181	-223.146637	483.023193	297.243042	-215.202515	427.811676	219.500000	-213.743912	248.401230	248.578995	-234.094208	61.335297	169.081070	-290.230804	46.001293	133.145309	-131.681839	46.054760	144.885635	-249.455643	472.307404	-73.132965	-250.945099	417.051697	-26.173931	-381.828003	291.897186	-59.747982	-512.591064	185.014114	8.443662	-542.628235	226.994675	59.856041	-469.917328	84.038284	8.073110
161	1.60000000	-244.580170	1275.295044	283.861542	-261.721527	1304.893066	-53.973782	-326.043640	1357.326904	118.305641	-198.373917	1265.519775	108.786797	-314.399811	982.024597	344.419159	-261.935394	1004.468262	-127.537514	-243.946167	771.847260	342.211395	-168.713882	803.517487	-119.643032	-195.816833	876.222595	243.897797	-206.804398	872.198120	-16.228750	-376.815704	875.284729	120.989555	-392.446838	1162.408447	111.009972	-181.330429	1066.477051	104.317856	-218.968124	482.961609	297.686859	-212.172882	427.696472	219.849197	-212.545288	248.112473	248.815903	-233.942307	61.335453	168.981827	-290.170532	46.224342	132.991547	-131.649216	46.008884	144.948105	-230.852158	474.089355	-72.135429	-229.476868	419.373840	-25.620361	-358.228363	293.519928	-60.018711	-486.915253	183.708069	7.549506	-518.640869	224.028061	59.221397	-439.703125	85.213776	6.095908
162	1.61000000	-233.565247	1275.905884	284.065765	-251.877945	1305.265625	-53.774723	-315.388367	1358.102539	118.932129	-187.853821	1266.038330	109.016510	-297.856384	981.820007	345.916656	-256.809204	1004.657837	-126.767075	-222.467026	773.469727	342.934647	-168.321770	801.642456	-119.910336	-186.597076	876.368347	245.077026	-196.393555	873.378723	-15.149305	-366.880371	876.080688	121.299034	-382.163147	1163.262695	111.940414	-171.293777	1067.027344	104.733566	-214.635178	482.930786	298.106598	-209.176666	427.588867	220.179031	-211.338715	247.858078	249.032318	-233.778046	61.353081	168.877823	-290.095703	46.458874	132.832565	-131.613647	45.963978	145.024826	-212.083755	476.002655	-71.134842	-208.168655	421.685059	-24.984070	-334.067902	294.139832	-60.165752	-460.391998	181.158051	6.754511	-494.018829	219.793152	58.442944	-408.467377	85.395332	4.760657
163	1.62000000	-222.697495	1276.479614	284.271973	-242.131912	1305.563599	-53.586773	-304.834106	1358.764160	119.533371	-177.404633	1266.497192	109.247078	-281.317200	981.657043	347.317688	-251.903610	1004.840698	-126.003853	-200.880905	775.303436	343.506317	-168.035774	799.952942	-120.137833	-177.497818	876.460815	246.250336	-185.943573	874.504456	-13.998088	-356.980652	876.790527	121.419785	-371.924957	1163.994873	112.818352	-161.281281	1067.513550	105.165611	-210.205322	482.919098	298.497314	-206.200211	427.484131	220.486237	-210.095444	247.634079	249.221008	-233.601196	61.391060	168.773804	-290.003510	46.711346	132.674652	-131.569458	45.923176	145.104416	-193.117722	478.020630	-70.170898	-187.067673	423.924561	-24.279644	-309.347656	293.701874	-60.168922	-433.045593	177.391357	6.081792	-468.741608	214.327362	57.548225	-376.358429	84.619118	4.068913
164	1.63000000	-211.955872	1277.009033	284.479248	-232.464020	1305.787231	-53.405121	-294.369720	1359.303955	120.109886	-167.015747	1266.889160	109.484047	-264.817505	981.537048	348.616241	-247.186310	1005.016052	-125.238373	-179.235863	777.354095	343.908829	-167.813713	798.430847	-120.318260	-168.477615	876.492676	247.401031	-175.461884	875.527649	-12.799021	-347.104095	877.393616	121.363724	-361.721985	1164.597900	113.642105	-151.279999	1067.925781	105.610435	-205.760391	482.914398	298.854218	-203.233139	427.379089	220.767517	-208.796890	247.435883	249.378082	-233.412170	61.451542	168.675171	-289.892487	46.988205	132.523453	-131.511230	45.888096	145.176727	-173.972748	480.120667	-69.270226	-166.230072	426.046722	-23.522396	-284.080719	292.214630	-60.007080	-404.884399	172.466995	5.557165	-442.780121	207.685257	56.581875	-343.482971	82.965332	3.994199
